<svg xmlns="http://www.w3.org/2000/svg" viewBox="0 0 128 128" fill="none">
  <rect width="128" height="128" rx="28" fill="#f6d0a4"/>
  <path d="M26 37c0-7.732 6.268-14 14-14h47c8.284 0 15 6.716 15 15v50c0 9.389-7.611 17-17 17H43c-9.389 0-17-7.611-17-17V37Z" fill="#9c5c42"/>
  <path d="M39 38h37c7.18 0 13 5.82 13 13v38H48c-4.971 0-9 4.029-9 9V38Z" fill="#fff4df"/>
  <path d="M48 89h41v7c0 4.971-4.029 9-9 9H48v-16Z" fill="#f3e0b8"/>
  <path d="M58 48c9.5-11.5 21-11 28 0-8 1-13 5.5-14 13-2.5-6.5-7-11-14-13Z" fill="#f0b13e"/>
  <circle cx="73" cy="59" r="4" fill="#9c5c42"/>
</svg>
